{"accessors":[{"bufferView":2,"componentType":5126,"count":1906,"max":[0.9484511613845825,0.277739554643631,0.324737012386322],"min":[-0.9529100060462952,-0.26773953437805176,-0.21220597624778748],"type":"VEC3"},{"bufferView":2,"byteOffset":22872,"componentType":5126,"count":1906,"max":[0.9989980459213257,0.9986354112625122,0.9996517300605774],"min":[-0.9946189522743225,-0.9986354112625122,-0.9999994039535522],"type":"VEC3"},{"bufferView":1,"componentType":5126,"count":1906,"max":[0.9742255806922913,0.6623684763908386],"min":[0.023545000702142715,0.39389699697494507],"type":"VEC2"},{"bufferView":0,"componentType":5125,"count":11352,"type":"SCALAR"}],"asset":{"extras":{"author":"photogrammetryblender3D (https://sketchfab.com/photogrammetryblender3D)","license":"CC-BY-NC-SA-4.0 (http://creativecommons.org/licenses/by-nc-sa/4.0/)","source":"https://sketchfab.com/3d-models/whale-in-3d-with-anatomy-9871233e3bee4bc1a90a02cc44f7a329","title":"Whale in 3D (with anatomy)"},"generator":"Sketchfab-12.68.0","version":"2.0"},"bufferViews":[{"buffer":0,"byteLength":45408,"name":"floatBufferViews","target":34963},{"buffer":0,"byteLength":15248,"byteOffset":45408,"byteStride":8,"name":"floatBufferViews","target":34962},{"buffer":0,"byteLength":45744,"byteOffset":60656,"byteStride":12,"name":"floatBufferViews","target":34962}],"buffers":[{"byteLength":106400,"uri":"data:application/octet-stream;base64,"}],"images":[{"uri":"data:application/octet-stream;base64,"}],"materials":[{"doubleSided":true,"emissiveTexture":{"index":0},"name":"Textured","pbrMetallicRoughness":{"baseColorTexture":{"index":0},"metallicFactor":0}}],"meshes":[{"name":"Object_0","primitives":[{"attributes":{"NORMAL":1,"POSITION":0,"TEXCOORD_0":2},"indices":3,"material":0,"mode":4}]}],"nodes":[{"children":[1],"matrix":[20.943809509277344,0,0,0,0,4.650459908112602e-15,-20.943809509277344,0,0,20.943809509277344,4.650459908112602e-15,0,0,0,0,1],"name":"Sketchfab_model"},{"children":[2],"name":"model_770634704126.obj.cleaner.materialmerger.gles"},{"mesh":0,"name":"Object_2"}],"samplers":[{"magFilter":9729,"minFilter":9987,"wrapS":10497,"wrapT":10497}],"scene":0,"scenes":[{"name":"Sketchfab_Scene","nodes":[0]}],"textures":[{"sampler":0,"source":0}]}